<svg version="1.1" viewBox="0.0 0.0 960.0 540.0" fill="none" stroke="none" stroke-linecap="square" stroke-miterlimit="10" xmlns:xlink="http://www.w3.org/1999/xlink" xmlns="http://www.w3.org/2000/svg"><clipPath id="g3ec92de7b4b_2_45.0"><path d="m0 0l960.0 0l0 540.0l-960.0 0l0 -540.0z" clip-rule="nonzero"></path></clipPath><g clip-path="url(#g3ec92de7b4b_2_45.0)"><path fill="#000000" fill-opacity="0.0" d="m0 0l960.0 0l0 540.0l-960.0 0z" fill-rule="evenodd"></path><path fill="#000000" fill-opacity="0.0" d="m188.77907 378.55084c-19.774292 -12.708221 -48.719955 -19.257843 -69.92553 -9.116608c-16.638748 7.9572144 -32.7996 38.637726 -19.760536 51.681793c21.659302 21.667633 60.243454 -25.409363 76.003265 -51.681793c5.2139893 -8.691956 11.076584 -31.493866 18.243744 -24.326721c16.73021 16.730194 8.474365 46.55963 12.160721 69.930786c1.3987579 8.86795 2.8434753 33.452362 7.5998077 25.838287c13.608765 -21.78537 8.334213 -56.02899 28.8824 -71.44235c13.529266 -10.148407 38.8497 20.169434 50.16501 7.5997925c14.952393 -16.609924 34.760803 -42.63272 56.247986 -36.487457c7.026703 2.009613 19.395477 17.20868 12.160736 18.243744c-26.810638 3.835785 -71.85007 -2.1608887 -77.52533 24.321472c-5.6791077 26.500336 49.37982 33.953217 76.003265 28.882385c41.214905 -7.8499756 88.52872 -35.741394 100.32999 -76.003265c26.182526 -89.32576 35.026367 -206.4797 -24.321442 -278.1906c-21.08133 -25.472874 -77.83197 -1.9332352 -95.76907 25.843533c-24.27127 37.585587 -37.64395 86.58291 -30.40448 130.73447c9.484314 57.842087 56.482483 105.51399 100.33002 144.412c30.687805 27.223724 73.003815 68.73273 110.97391 53.203857c42.27472 -17.289368 37.250916 -85.21335 41.04315 -130.72919c4.0401 -48.491013 3.2340088 -102.38591 -21.282593 -144.41728c-22.997559 -39.427048 -81.335815 -61.745323 -126.17355 -53.203865c-45.514862 8.670456 -89.807526 47.39863 -104.89093 91.20814c-21.790344 63.289825 0.98373413 136.98961 25.843536 199.13792c13.567047 33.91693 29.10083 67.01593 44.08728 100.33002c5.190735 11.538757 6.873871 18.968384 7.5997925 18.243713c19.037262 -19.004333 -0.33639526 -54.119537 4.5609436 -80.56946c6.0919495 -32.9021 24.511871 -67.90796 53.203857 -85.12512c14.79892 -8.880371 36.250244 -10.762543 51.687073 -3.044159c15.147308 7.5736694 39.521027 48.861786 39.521027 31.926544c0 -31.733063 -60.6882 -44.815063 -89.686035 -31.926544c-13.259796 5.8935547 -14.002716 28.900177 -9.121857 42.565216c5.1387024 14.387024 36.61612 7.7926025 45.604065 -4.5609436c6.036499 -8.2969055 15.890137 -19.213226 25.843536 -16.72165c7.3726807 1.8455505 10.696716 14.623474 18.238464 13.6828c11.995239 -1.4961548 7.6776123 -30.40448 19.765808 -30.40448c12.182739 0 13.783569 24.118134 25.843506 25.843536c20.680786 2.9588013 28.82251 -46.124054 48.642944 -39.521057c9.910217 3.3014832 24.321472 30.206207 24.321472 19.760529c0 -14.078735 -23.026245 -25.423706 -36.482178 -21.282593c-11.72406 3.6081238 -21.06781 16.739288 -22.804688 28.882385c-0.7210083 5.0405884 -2.947937 12.761139 1.5220337 15.1996155c19.00238 10.365997 47.391846 -5.809204 60.80371 -22.799408c1.4086304 -1.7844543 14.372253 -27.199432 15.204834 -27.3656c19.727417 -3.9372864 29.286377 27.761719 45.604065 39.526337c54.25763 39.118286 131.11511 79.96341 193.06024 54.72592c69.60516 -28.358307 -5.4067383 -183.21774 -74.49176 -212.82072" fill-rule="evenodd"></path><path stroke="#fc0304" stroke-width="8.023622047244094" stroke-linejoin="round" stroke-linecap="butt" d="m188.77907 378.55084c-19.774292 -12.708221 -48.719955 -19.257843 -69.92553 -9.116608c-16.638748 7.9572144 -32.7996 38.637726 -19.760536 51.681793c21.659302 21.667633 60.243454 -25.409363 76.003265 -51.681793c5.2139893 -8.691956 11.076584 -31.493866 18.243744 -24.326721c16.73021 16.730194 8.474365 46.55963 12.160721 69.930786c1.3987579 8.86795 2.8434753 33.452362 7.5998077 25.838287c13.608765 -21.78537 8.334213 -56.02899 28.8824 -71.44235c13.529266 -10.148407 38.8497 20.169434 50.16501 7.5997925c14.952393 -16.609924 34.760803 -42.63272 56.247986 -36.487457c7.026703 2.009613 19.395477 17.20868 12.160736 18.243744c-26.810638 3.835785 -71.85007 -2.1608887 -77.52533 24.321472c-5.6791077 26.500336 49.37982 33.953217 76.003265 28.882385c41.214905 -7.8499756 88.52872 -35.741394 100.32999 -76.003265c26.182526 -89.32576 35.026367 -206.4797 -24.321442 -278.1906c-21.08133 -25.472874 -77.83197 -1.9332352 -95.76907 25.843533c-24.27127 37.585587 -37.64395 86.58291 -30.40448 130.73447c9.484314 57.842087 56.482483 105.51399 100.33002 144.412c30.687805 27.223724 73.003815 68.73273 110.97391 53.203857c42.27472 -17.289368 37.250916 -85.21335 41.04315 -130.72919c4.0401 -48.491013 3.2340088 -102.38591 -21.282593 -144.41728c-22.997559 -39.427048 -81.335815 -61.745323 -126.17355 -53.203865c-45.514862 8.670456 -89.807526 47.39863 -104.89093 91.20814c-21.790344 63.289825 0.98373413 136.98961 25.843536 199.13792c13.567047 33.91693 29.10083 67.01593 44.08728 100.33002c5.190735 11.538757 6.873871 18.968384 7.5997925 18.243713c19.037262 -19.004333 -0.33639526 -54.119537 4.5609436 -80.56946c6.0919495 -32.9021 24.511871 -67.90796 53.203857 -85.12512c14.79892 -8.880371 36.250244 -10.762543 51.687073 -3.044159c15.147308 7.5736694 39.521027 48.861786 39.521027 31.926544c0 -31.733063 -60.6882 -44.815063 -89.686035 -31.926544c-13.259796 5.8935547 -14.002716 28.900177 -9.121857 42.565216c5.1387024 14.387024 36.61612 7.7926025 45.604065 -4.5609436c6.036499 -8.2969055 15.890137 -19.213226 25.843536 -16.72165c7.3726807 1.8455505 10.696716 14.623474 18.238464 13.6828c11.995239 -1.4961548 7.6776123 -30.40448 19.765808 -30.40448c12.182739 0 13.783569 24.118134 25.843506 25.843536c20.680786 2.9588013 28.82251 -46.124054 48.642944 -39.521057c9.910217 3.3014832 24.321472 30.206207 24.321472 19.760529c0 -14.078735 -23.026245 -25.423706 -36.482178 -21.282593c-11.72406 3.6081238 -21.06781 16.739288 -22.804688 28.882385c-0.7210083 5.0405884 -2.947937 12.761139 1.5220337 15.1996155c19.00238 10.365997 47.391846 -5.809204 60.80371 -22.799408c1.4086304 -1.7844543 14.372253 -27.199432 15.204834 -27.3656c19.727417 -3.9372864 29.286377 27.761719 45.604065 39.526337c54.25763 39.118286 131.11511 79.96341 193.06024 54.72592c69.60516 -28.358307 -5.4067383 -183.21774 -74.49176 -212.82072" fill-rule="evenodd"></path><path fill="#000000" fill-opacity="0.0" d="m29.996073 345.10995c3.5814075 25.082275 12.525187 49.19458 21.282602 72.969666c2.2770157 6.1817627 5.347683 24.4346 7.5998 18.243744c4.074917 -11.20163 -0.17345428 -38.31549 4.560932 -60.80896c9.5681 -45.45883 31.098984 -90.25751 62.32573 -124.65146c62.733505 -69.0963 198.9609 -115.27228 273.62967 -59.286865" fill-rule="evenodd"></path><path stroke="#fc0304" stroke-width="8.023622047244094" stroke-linejoin="round" stroke-linecap="butt" d="m29.996073 345.10995c3.5814075 25.082275 12.525187 49.19458 21.282602 72.969666c2.2770157 6.1817627 5.347683 24.4346 7.5998 18.243744c4.074917 -11.20163 -0.17345428 -38.31549 4.560932 -60.80896c9.5681 -45.45883 31.098984 -90.25751 62.32573 -124.65146c62.733505 -69.0963 198.9609 -115.27228 273.62967 -59.286865" fill-rule="evenodd"></path></g></svg>