<svg version="1.1" viewBox="0.0 0.0 960.0 540.0" fill="none" stroke="none" stroke-linecap="square" stroke-miterlimit="10" xmlns:xlink="http://www.w3.org/1999/xlink" xmlns="http://www.w3.org/2000/svg"><clipPath id="g3ec92de7b4b_2_37.0"><path d="m0 0l960.0 0l0 540.0l-960.0 0l0 -540.0z" clip-rule="nonzero"></path></clipPath><g clip-path="url(#g3ec92de7b4b_2_37.0)"><path fill="#000000" fill-opacity="0.0" d="m0 0l960.0 0l0 540.0l-960.0 0z" fill-rule="evenodd"></path><path fill="#000000" fill-opacity="0.0" d="m50.27232 78.65953c0 69.88197 33.6349 135.69435 53.1188 202.80547c10.360725 35.68686 19.162819 72.07791 33.803413 106.23282c5.671875 13.231903 5.6584473 34.073303 19.3154 38.62906c24.856323 8.291748 35.316498 -38.71753 53.118805 -57.943573c37.11708 -40.0856 38.022736 -39.246826 77.26158 -77.25812c72.843506 -70.56464 154.18805 -136.16405 246.27283 -178.66377c40.132385 -18.522247 99.13147 -55.39502 130.38617 -24.1417" fill-rule="evenodd"></path><path stroke="#fc0304" stroke-width="8.887139107611548" stroke-linejoin="round" stroke-linecap="butt" d="m50.27232 78.65953c0 69.88197 33.6349 135.69435 53.1188 202.80547c10.360725 35.68686 19.162819 72.07791 33.803413 106.23282c5.671875 13.231903 5.6584473 34.073303 19.3154 38.62906c24.856323 8.291748 35.316498 -38.71753 53.118805 -57.943573c37.11708 -40.0856 38.022736 -39.246826 77.26158 -77.25812c72.843506 -70.56464 154.18805 -136.16405 246.27283 -178.66377c40.132385 -18.522247 99.13147 -55.39502 130.38617 -24.1417" fill-rule="evenodd"></path><path fill="#000000" fill-opacity="0.0" d="m344.5839 354.48404c-17.011414 4.864105 -38.755676 27.367065 -30.847504 43.19388c6.082611 12.173309 19.183441 -42.171387 26.737213 -30.85196c7.0168457 10.514862 -4.0392456 40.079773 8.22641 37.02002c24.969116 -6.2287292 55.02771 -77.01938 57.590546 -51.414093c1.1606445 11.5961 -2.288147 46.38925 0 34.962036c5.193939 -25.939056 15.037109 -63.520935 41.131927 -67.87195c12.432404 -2.072937 14.133179 26.736023 26.737244 26.736023c12.360352 0 19.799438 -26.098572 30.853333 -20.567963c7.970093 3.9877014 -21.634033 1.9086304 -24.679169 10.283997c-3.9272156 10.801392 0.72161865 39.285828 10.284424 32.909912c40.947113 -27.301147 66.23715 -94.42804 47.30612 -139.85399c-7.9820557 -19.153381 -47.0336 -22.898438 -61.706665 -8.226028c-31.211517 31.210114 -5.897644 92.43405 14.400543 131.62796c24.142181 46.61624 68.04208 114.2128 119.29141 102.828156c52.502014 -11.662903 45.043762 -100.51614 47.30609 -154.24805c3.8744507 -92.02136 22.72937 -216.84698 -51.42224 -271.48196c-12.192566 -8.983509 -33.29297 -5.181307 -45.248047 4.1159267c-97.34317 75.701996 -126.801575 256.85526 -65.816925 364.03195c18.055878 31.732056 38.900604 61.98169 61.706696 90.492035c6.6884766 8.36142 18.461914 35.177155 20.56305 24.67807c9.306519 -46.50412 -28.52832 -98.12912 -10.284485 -141.90613c7.973572 -19.132904 31.04895 -31.146027 51.42224 -34.967865c13.083801 -2.4544067 28.006653 15.614716 39.079712 8.226013c18.283081 -12.1996765 17.86383 -65.808136 -4.116089 -65.808136c-18.15149 0 -28.253357 56.039948 -10.284485 53.472015c18.071716 -2.5825806 14.52301 -37.086975 30.853333 -45.246002c6.6341553 -3.3145752 5.1481323 20.309784 12.342529 18.50998c15.99054 -4.0002747 27.594788 -49.71176 34.963623 -34.967865c2.7418823 5.486084 2.4083252 14.516785 8.226379 16.457886c11.037109 3.6823425 32.906555 -16.45691 24.679138 -24.683899c-7.4160767 -7.4157715 -16.11853 34.16696 -6.168335 30.85196c14.545105 -4.8458557 6.335449 -35.439575 20.568909 -41.13594c9.180054 -3.6739197 17.207947 9.981033 24.6792 16.45787c23.95166 20.763855 63.31305 54.289764 88.43805 34.962036c59.57599 -45.82962 16.119446 -203.26138 -57.584717 -218.0099" fill-rule="evenodd"></path><path stroke="#fc0304" stroke-width="8.887139107611548" stroke-linejoin="round" stroke-linecap="butt" d="m344.5839 354.48404c-17.011414 4.864105 -38.755676 27.367065 -30.847504 43.19388c6.082611 12.173309 19.183441 -42.171387 26.737213 -30.85196c7.0168457 10.514862 -4.0392456 40.079773 8.22641 37.02002c24.969116 -6.2287292 55.02771 -77.01938 57.590546 -51.414093c1.1606445 11.5961 -2.288147 46.38925 0 34.962036c5.193939 -25.939056 15.037109 -63.520935 41.131927 -67.87195c12.432404 -2.072937 14.133179 26.736023 26.737244 26.736023c12.360352 0 19.799438 -26.098572 30.853333 -20.567963c7.970093 3.9877014 -21.634033 1.9086304 -24.679169 10.283997c-3.9272156 10.801392 0.72161865 39.285828 10.284424 32.909912c40.947113 -27.301147 66.23715 -94.42804 47.30612 -139.85399c-7.9820557 -19.153381 -47.0336 -22.898438 -61.706665 -8.226028c-31.211517 31.210114 -5.897644 92.43405 14.400543 131.62796c24.142181 46.61624 68.04208 114.2128 119.29141 102.828156c52.502014 -11.662903 45.043762 -100.51614 47.30609 -154.24805c3.8744507 -92.02136 22.72937 -216.84698 -51.42224 -271.48196c-12.192566 -8.983509 -33.29297 -5.181307 -45.248047 4.1159267c-97.34317 75.701996 -126.801575 256.85526 -65.816925 364.03195c18.055878 31.732056 38.900604 61.98169 61.706696 90.492035c6.6884766 8.36142 18.461914 35.177155 20.56305 24.67807c9.306519 -46.50412 -28.52832 -98.12912 -10.284485 -141.90613c7.973572 -19.132904 31.04895 -31.146027 51.42224 -34.967865c13.083801 -2.4544067 28.006653 15.614716 39.079712 8.226013c18.283081 -12.1996765 17.86383 -65.808136 -4.116089 -65.808136c-18.15149 0 -28.253357 56.039948 -10.284485 53.472015c18.071716 -2.5825806 14.52301 -37.086975 30.853333 -45.246002c6.6341553 -3.3145752 5.1481323 20.309784 12.342529 18.50998c15.99054 -4.0002747 27.594788 -49.71176 34.963623 -34.967865c2.7418823 5.486084 2.4083252 14.516785 8.226379 16.457886c11.037109 3.6823425 32.906555 -16.45691 24.679138 -24.683899c-7.4160767 -7.4157715 -16.11853 34.16696 -6.168335 30.85196c14.545105 -4.8458557 6.335449 -35.439575 20.568909 -41.13594c9.180054 -3.6739197 17.207947 9.981033 24.6792 16.45787c23.95166 20.763855 63.31305 54.289764 88.43805 34.962036c59.57599 -45.82962 16.119446 -203.26138 -57.584717 -218.0099" fill-rule="evenodd"></path></g></svg>