<svg version="1.1" viewBox="0.0 0.0 960.0 540.0" fill="none" stroke="none" stroke-linecap="square" stroke-miterlimit="10" xmlns:xlink="http://www.w3.org/1999/xlink" xmlns="http://www.w3.org/2000/svg"><clipPath id="g3ec92de7b4b_2_13.0"><path d="m0 0l960.0 0l0 540.0l-960.0 0l0 -540.0z" clip-rule="nonzero"></path></clipPath><g clip-path="url(#g3ec92de7b4b_2_13.0)"><path fill="#000000" fill-opacity="0.0" d="m0 0l960.0 0l0 540.0l-960.0 0z" fill-rule="evenodd"></path><path fill="#000000" fill-opacity="0.0" d="m3.8120584 224.34557c55.054268 49.55861 93.03301 116.071884 129.78424 180.38655c11.236832 19.664429 16.505997 74.91507 32.9998 59.39377c55.314407 -52.05298 63.409622 -141.54498 116.58237 -195.78384c55.65268 -56.768494 151.48138 -59.393784 230.97906 -59.393784" fill-rule="evenodd"></path><path stroke="#fc0304" stroke-width="11.15485564304462" stroke-linejoin="round" stroke-linecap="butt" d="m3.8120584 224.34557c55.054268 49.55861 93.03301 116.071884 129.78424 180.38655c11.236832 19.664429 16.505997 74.91507 32.9998 59.39377c55.314407 -52.05298 63.409622 -141.54498 116.58237 -195.78384c55.65268 -56.768494 151.48138 -59.393784 230.97906 -59.393784" fill-rule="evenodd"></path><path fill="#000000" fill-opacity="0.0" d="m270.2539 393.05164c-17.968369 11.9687805 -43.636307 35.155792 -34.590256 54.758972c4.750305 10.294098 20.942642 -10.845673 27.379501 -20.178467c14.1596985 -20.530182 48.61322 -28.697449 72.049225 -20.168732c9.938019 3.6166077 10.390289 28.519531 20.168701 24.491272c22.416687 -9.234589 62.315674 -50.26062 40.3472 -60.51587c-18.22522 -8.507843 -38.95761 31.174255 -33.136414 50.426636c8.342102 27.589813 59.49716 55.58081 79.250244 34.59027c64.732544 -68.78772 33.910522 -188.59927 23.056946 -282.43024c-4.739868 -40.976868 -20.513397 -127.49084 -57.63745 -109.50821c-64.13513 31.066635 -77.25006 135.01073 -61.95999 204.61436c18.644836 84.87521 123.2428 211.43054 198.84769 168.58975c42.368896 -24.007935 33.93396 -92.63995 37.458984 -141.21027c3.812439 -52.531296 18.045227 -152.03278 -34.580505 -154.17795c-101.93149 -4.154999 -99.46115 204.8374 -61.960022 299.7108c4.4139404 11.166687 3.201416 -24.745056 10.089233 -34.580536c14.289551 -20.404755 50.07538 10.381958 70.6051 24.491272c11.319458 7.7794495 42.18158 -14.155182 33.136414 -24.491272c-13.0147705 -14.872253 -64.99689 9.994904 -53.31488 25.935394c8.17627 11.156708 25.914856 -9.68161 38.91284 -14.411804c12.70752 -4.6244507 33.21875 7.174835 40.337463 -4.322571c10.191956 -16.46106 23.26294 -50.890503 40.347168 -41.781525c62.125244 33.124115 140.57776 9.545197 210.38104 18.72461c23.724426 3.119873 67.961365 10.814514 70.6051 -12.967682c6.1226807 -55.07843 -20.374634 -138.6603 -74.92767 -148.41129c-132.0741 -23.607346 -271.2187 21.971008 -396.26105 70.60513" fill-rule="evenodd"></path><path stroke="#fc0304" stroke-width="11.15485564304462" stroke-linejoin="round" stroke-linecap="butt" d="m270.2539 393.05164c-17.968369 11.9687805 -43.636307 35.155792 -34.590256 54.758972c4.750305 10.294098 20.942642 -10.845673 27.379501 -20.178467c14.1596985 -20.530182 48.61322 -28.697449 72.049225 -20.168732c9.938019 3.6166077 10.390289 28.519531 20.168701 24.491272c22.416687 -9.234589 62.315674 -50.26062 40.3472 -60.51587c-18.22522 -8.507843 -38.95761 31.174255 -33.136414 50.426636c8.342102 27.589813 59.49716 55.58081 79.250244 34.59027c64.732544 -68.78772 33.910522 -188.59927 23.056946 -282.43024c-4.739868 -40.976868 -20.513397 -127.49084 -57.63745 -109.50821c-64.13513 31.066635 -77.25006 135.01073 -61.95999 204.61436c18.644836 84.87521 123.2428 211.43054 198.84769 168.58975c42.368896 -24.007935 33.93396 -92.63995 37.458984 -141.21027c3.812439 -52.531296 18.045227 -152.03278 -34.580505 -154.17795c-101.93149 -4.154999 -99.46115 204.8374 -61.960022 299.7108c4.4139404 11.166687 3.201416 -24.745056 10.089233 -34.580536c14.289551 -20.404755 50.07538 10.381958 70.6051 24.491272c11.319458 7.7794495 42.18158 -14.155182 33.136414 -24.491272c-13.0147705 -14.872253 -64.99689 9.994904 -53.31488 25.935394c8.17627 11.156708 25.914856 -9.68161 38.91284 -14.411804c12.70752 -4.6244507 33.21875 7.174835 40.337463 -4.322571c10.191956 -16.46106 23.26294 -50.890503 40.347168 -41.781525c62.125244 33.124115 140.57776 9.545197 210.38104 18.72461c23.724426 3.119873 67.961365 10.814514 70.6051 -12.967682c6.1226807 -55.07843 -20.374634 -138.6603 -74.92767 -148.41129c-132.0741 -23.607346 -271.2187 21.971008 -396.26105 70.60513" fill-rule="evenodd"></path></g></svg>