<svg version="1.1" viewBox="18 149 922 268" fill="none" stroke="none" stroke-linecap="square" stroke-miterlimit="10" xmlns:xlink="http://www.w3.org/1999/xlink" xmlns="http://www.w3.org/2000/svg"><clipPath id="g3e81e9dd35c_0_0.0"><path d="m0 0l960.0 0l0 540.0l-960.0 0l0 -540.0z" clip-rule="nonzero"></path></clipPath><g clip-path="url(#g3e81e9dd35c_0_0.0)"><path fill="#000000" fill-opacity="0.0" d="m0 0l960.0 0l0 540.0l-960.0 0z" fill-rule="evenodd"></path><path fill="#000000" fill-opacity="0.0" d="m36.042114 232.35042c0 20.963638 -10.224932 79.20015 2.8651505 62.825638c18.34787 -22.951508 15.4591255 -60.10176 37.122353 -79.95424c11.3363495 -10.388794 38.244293 31.804901 42.831886 17.128601c4.4363327 -14.192398 15.045998 -40.507767 28.547676 -34.27797c35.639572 16.444443 30.22647 72.44968 45.69702 108.522675" fill-rule="evenodd"></path><path stroke="#000000" stroke-width="15.821522309711286" stroke-linejoin="round" stroke-linecap="butt" d="m36.042114 232.35042c0 20.963638 -10.224932 79.20015 2.8651505 62.825638c18.34787 -22.951508 15.4591255 -60.10176 37.122353 -79.95424c11.3363495 -10.388794 38.244293 31.804901 42.831886 17.128601c4.4363327 -14.192398 15.045998 -40.507767 28.547676 -34.27797c35.639572 16.444443 30.22647 72.44968 45.69702 108.522675" fill-rule="evenodd"></path><path fill="#000000" fill-opacity="0.0" d="m215.94516 212.35696c2.9247742 26.23822 62.519165 59.140045 71.40033 34.27797c3.874939 -10.847549 -2.8520508 -32.85881 2.8651428 -22.858902c30.832458 53.928772 13.558289 179.923 -48.56218 179.923" fill-rule="evenodd"></path><path stroke="#000000" stroke-width="15.821522309711286" stroke-linejoin="round" stroke-linecap="butt" d="m215.94516 212.35696c2.9247742 26.23822 62.519165 59.140045 71.40033 34.27797c3.874939 -10.847549 -2.8520508 -32.85881 2.8651428 -22.858902c30.832458 53.928772 13.558289 179.923 -48.56218 179.923" fill-rule="evenodd"></path><path fill="#000000" fill-opacity="0.0" d="m435.8349 217.75508c6.857025 30.757309 13.774109 103.15346 39.987488 85.66377c18.28125 -12.197357 -1.9830322 -62.825638 19.993744 -62.825638c27.226532 0 24.1893 77.86684 48.541412 65.69078c27.7229 -13.86142 17.128601 -60.39897 17.128601 -91.39407" fill-rule="evenodd"></path><path stroke="#000000" stroke-width="15.821522309711286" stroke-linejoin="round" stroke-linecap="butt" d="m435.8349 217.75508c6.857025 30.757309 13.774109 103.15346 39.987488 85.66377c18.28125 -12.197357 -1.9830322 -62.825638 19.993744 -62.825638c27.226532 0 24.1893 77.86684 48.541412 65.69078c27.7229 -13.86142 17.128601 -60.39897 17.128601 -91.39407" fill-rule="evenodd"></path><path fill="#000000" fill-opacity="0.0" d="m632.8821 257.74152c-11.944275 19.868622 55.323242 43.57321 65.690796 22.838135c11.835266 -23.670563 -49.229187 -71.246185 -62.825623 -48.541412" fill-rule="evenodd"></path><path stroke="#000000" stroke-width="15.821522309711286" stroke-linejoin="round" stroke-linecap="butt" d="m632.8821 257.74152c-11.944275 19.868622 55.323242 43.57321 65.690796 22.838135c11.835266 -23.670563 -49.229187 -71.246185 -62.825623 -48.541412" fill-rule="evenodd"></path><path fill="#000000" fill-opacity="0.0" d="m744.2433 234.88368c0 25.984604 -6.934082 58.735947 11.439819 77.10985c0.10418701 0.10418701 -0.119018555 -40.91977 0 -42.83188c1.7269897 -27.745575 37.87079 -51.40657 65.670044 -51.40657" fill-rule="evenodd"></path><path stroke="#000000" stroke-width="15.821522309711286" stroke-linejoin="round" stroke-linecap="butt" d="m744.2433 234.88368c0 25.984604 -6.934082 58.735947 11.439819 77.10985c0.10418701 0.10418701 -0.119018555 -40.91977 0 -42.83188c1.7269897 -27.745575 37.87079 -51.40657 65.670044 -51.40657" fill-rule="evenodd"></path><path fill="#000000" fill-opacity="0.0" d="m872.7792 154.92944c0 44.745102 -0.14202881 89.559845 2.8444214 134.2052c1.2141113 18.149841 18.525208 67.18094 5.7095337 54.271698c-32.533752 -32.77121 1.7442017 -166.99718 34.277954 -134.22595c12.81366 12.907196 -30.898743 22.897964 -37.122375 39.987503c-10.570801 29.026596 27.294617 57.79927 51.406616 77.10985" fill-rule="evenodd"></path><path stroke="#000000" stroke-width="15.821522309711286" stroke-linejoin="round" stroke-linecap="butt" d="m872.7792 154.92944c0 44.745102 -0.14202881 89.559845 2.8444214 134.2052c1.2141113 18.149841 18.525208 67.18094 5.7095337 54.271698c-32.533752 -32.77121 1.7442017 -166.99718 34.277954 -134.22595c12.81366 12.907196 -30.898743 22.897964 -37.122375 39.987503c-10.570801 29.026596 27.294617 57.79927 51.406616 77.10985" fill-rule="evenodd"></path></g></svg>